<svg xmlns="http://www.w3.org/2000/svg" xmlns:xlink="http://www.w3.org/1999/xlink" viewBox="0 0 1080 1080" width="1080"
	height="1080" preserveAspectRatio="xMidYMid meet"
	style="width: 100%; height: 100%; transform: translate3d(0px, 0px, 0px); content-visibility: visible;">
	<defs>
		<clipPath id="__lottie_element_46">
			<rect width="1080" height="1080" x="0" y="0"></rect>
		</clipPath>
	</defs>
	<g clip-path="url(#__lottie_element_46)" >
		<g transform="matrix(1,0,0,1,202.3590087890625,288.6540222167969)" opacity="1">
			<g opacity="1" transform="matrix(1,0,0,1,466.7040100097656,512.1729736328125)">
				<path fill="rgb(74,74,74)" fill-opacity="1"
					d=" M36.3129997253418,75.33000183105469 C36.3129997253418,75.33000183105469 16.256000518798828,56.27799987792969 16.256000518798828,56.27799987792969 C16.256000518798828,56.27799987792969 -14.85099983215332,26.722000122070312 -14.85099983215332,26.722000122070312 C-14.85099983215332,26.722000122070312 -14.85099983215332,-89.1729965209961 -14.85099983215332,-89.1729965209961 C-14.85099983215332,-89.1729965209961 -50.8849983215332,-89.1729965209961 -50.8849983215332,-89.1729965209961 C-50.8849983215332,-89.1729965209961 -50.8849983215332,26.722000122070312 -50.8849983215332,26.722000122070312 C-50.8849983215332,26.722000122070312 -19.777999877929688,56.27799987792969 -19.777999877929688,56.27799987792969 C-19.777999877929688,56.27799987792969 0.27799999713897705,75.33000183105469 0.27799999713897705,75.33000183105469 C0.27799999713897705,75.33000183105469 14.85099983215332,89.1729965209961 14.85099983215332,89.1729965209961 C14.85099983215332,89.1729965209961 50.8849983215332,89.1729965209961 50.8849983215332,89.1729965209961 C50.8849983215332,89.1729965209961 36.3129997253418,75.33000183105469 36.3129997253418,75.33000183105469z">
				</path>
			</g>
			<g opacity="1" transform="matrix(1,0,0,1,433.83599853515625,431.7909851074219)">
				<path fill="rgb(104,104,104)" fill-opacity="1"
					d=" M-18.017000198364258,-8.791000366210938 C-18.017000198364258,-8.791000366210938 18.017000198364258,-8.791000366210938 18.017000198364258,-8.791000366210938 C18.017000198364258,-8.791000366210938 18.017000198364258,8.791000366210938 18.017000198364258,8.791000366210938 C18.017000198364258,8.791000366210938 -18.017000198364258,8.791000366210938 -18.017000198364258,8.791000366210938 C-18.017000198364258,8.791000366210938 -18.017000198364258,-8.791000366210938 -18.017000198364258,-8.791000366210938z">
				</path>
			</g>
			<g opacity="1" transform="matrix(1,0,0,1,433.83599853515625,480.02899169921875)">
				<path fill="rgb(104,104,104)" fill-opacity="1"
					d=" M-18.017000198364258,-9.526000022888184 C-18.017000198364258,-9.526000022888184 18.017000198364258,-9.526000022888184 18.017000198364258,-9.526000022888184 C18.017000198364258,-9.526000022888184 18.017000198364258,9.527000427246094 18.017000198364258,9.527000427246094 C18.017000198364258,9.527000427246094 -18.017000198364258,9.527000427246094 -18.017000198364258,9.527000427246094 C-18.017000198364258,9.527000427246094 -18.017000198364258,-9.526000022888184 -18.017000198364258,-9.526000022888184z">
				</path>
			</g>
			<g opacity="1" transform="matrix(1,0,0,1,433.83599853515625,529.0029907226562)">
				<path fill="rgb(104,104,104)" fill-opacity="1"
					d=" M-18.017000198364258,-9.526000022888184 C-18.017000198364258,-9.526000022888184 18.017000198364258,-9.526000022888184 18.017000198364258,-9.526000022888184 C18.017000198364258,-9.526000022888184 18.017000198364258,9.526000022888184 18.017000198364258,9.526000022888184 C18.017000198364258,9.526000022888184 -18.017000198364258,9.526000022888184 -18.017000198364258,9.526000022888184 C-18.017000198364258,9.526000022888184 -18.017000198364258,-9.526000022888184 -18.017000198364258,-9.526000022888184z">
				</path>
			</g>
			<g opacity="1" transform="matrix(1,0,0,1,474.97100830078125,577.9769897460938)">
				<path fill="rgb(104,104,104)" fill-opacity="1"
					d=" M28.04599952697754,9.526000022888184 C28.04599952697754,9.526000022888184 -7.989999771118164,9.526000022888184 -7.989999771118164,9.526000022888184 C-7.989999771118164,9.526000022888184 -28.04599952697754,-9.526000022888184 -28.04599952697754,-9.526000022888184 C-28.04599952697754,-9.526000022888184 7.98799991607666,-9.526000022888184 7.98799991607666,-9.526000022888184 C7.98799991607666,-9.526000022888184 28.04599952697754,9.526000022888184 28.04599952697754,9.526000022888184z">
				</path>
			</g>
			<g opacity="1" transform="matrix(1,0,0,1,629.177978515625,236.0749969482422)">
				<path fill="rgb(64,64,64)" fill-opacity="1"
					d=" M45.85200119018555,-180.1540069580078 C45.85200119018555,-180.1540069580078 45.85200119018555,180.1529998779297 45.85200119018555,180.1529998779297 C45.85200119018555,184.9969940185547 45.231998443603516,189.697998046875 44.07400131225586,194.17799377441406 C42.42100143432617,200.53700256347656 39.66600036621094,206.4600067138672 36.03499984741211,211.72500610351562 C25.99799919128418,226.2790069580078 9.199000358581543,235.82400512695312 -9.819000244140625,235.82400512695312 C-9.819000244140625,235.82400512695312 -45.85300064086914,235.82400512695312 -45.85300064086914,235.82400512695312 C-26.82699966430664,235.82400512695312 -10.038000106811523,226.2790069580078 0,211.72500610351562 C3.631999969482422,206.4600067138672 6.38700008392334,200.53700256347656 8.038999557495117,194.17799377441406 C9.199000358581543,189.697998046875 9.819000244140625,184.9969940185547 9.819000244140625,180.1529998779297 C9.819000244140625,180.1529998779297 9.819000244140625,-180.1540069580078 9.819000244140625,-180.1540069580078 C9.819000244140625,-184.99899291992188 9.199000358581543,-189.697998046875 8.038999557495117,-194.17799377441406 C6.38700008392334,-200.53799438476562 3.631999969482422,-206.4600067138672 0,-211.72500610351562 C-10.036999702453613,-226.2790069580078 -26.82699966430664,-235.82400512695312 -45.85300064086914,-235.82400512695312 C-45.85300064086914,-235.82400512695312 -9.819000244140625,-235.82400512695312 -9.819000244140625,-235.82400512695312 C9.197999954223633,-235.82400512695312 25.996999740600586,-226.2790069580078 36.03499984741211,-211.72500610351562 C39.66600036621094,-206.4600067138672 42.42100143432617,-200.53799438476562 44.07400131225586,-194.17799377441406 C45.231998443603516,-189.697998046875 45.85200119018555,-184.99899291992188 45.85200119018555,-180.1540069580078z">
				</path>
			</g>
			<g opacity="1" transform="matrix(1,0,0,1,319.62298583984375,461.7309875488281)">
				<path fill="rgb(64,64,64)" fill-opacity="1"
					d=" M-96.1989974975586,-77.16600036621094 C-96.1989974975586,-77.16600036621094 96.1989974975586,-77.16600036621094 96.1989974975586,-77.16600036621094 C96.1989974975586,-77.16600036621094 96.1989974975586,77.16699981689453 96.1989974975586,77.16699981689453 C96.1989974975586,77.16699981689453 -96.1989974975586,77.16699981689453 -96.1989974975586,77.16699981689453 C-96.1989974975586,77.16699981689453 -96.1989974975586,-77.16600036621094 -96.1989974975586,-77.16600036621094z">
				</path>
			</g>
			<g opacity="1" transform="matrix(1,0,0,1,319.62298583984375,570.1209716796875)">
				<path fill="rgb(64,64,64)" fill-opacity="1"
					d=" M161.9320068359375,31.222999572753906 C161.9320068359375,31.222999572753906 96.1989974975586,-31.224000930786133 96.1989974975586,-31.224000930786133 C96.1989974975586,-31.224000930786133 -96.1989974975586,-31.224000930786133 -96.1989974975586,-31.224000930786133 C-96.1989974975586,-31.224000930786133 -161.93299865722656,31.222999572753906 -161.93299865722656,31.222999572753906 C-161.93299865722656,31.222999572753906 161.9320068359375,31.222999572753906 161.9320068359375,31.222999572753906z">
				</path>
			</g>
			<g opacity="1" transform="matrix(1,0,0,1,319.6239929199219,236.07400512695312)">
				<path fill="rgb(74,74,74)" fill-opacity="1"
					d=" M319.3739929199219,-180.1540069580078 C319.3739929199219,-180.1540069580078 319.3739929199219,180.1540069580078 319.3739929199219,180.1540069580078 C319.3739929199219,210.89999389648438 294.4490051269531,235.82400512695312 263.7030029296875,235.82400512695312 C263.7030029296875,235.82400512695312 -263.7040100097656,235.82400512695312 -263.7040100097656,235.82400512695312 C-294.4490051269531,235.82400512695312 -319.3739929199219,210.89999389648438 -319.3739929199219,180.1540069580078 C-319.3739929199219,180.1540069580078 -319.3739929199219,-180.1540069580078 -319.3739929199219,-180.1540069580078 C-319.3739929199219,-210.89999389648438 -294.4490051269531,-235.82400512695312 -263.7040100097656,-235.82400512695312 C-263.7040100097656,-235.82400512695312 263.7030029296875,-235.82400512695312 263.7030029296875,-235.82400512695312 C294.447998046875,-235.82400512695312 319.3739929199219,-210.8990020751953 319.3739929199219,-180.1540069580078z">
				</path>
			</g>
			<g opacity="1" transform="matrix(1,0,0,1,319.62298583984375,236.07400512695312)">
				<path fill="rgb(175,231,255)" fill-opacity="1"
					d=" M-263.7030029296875,208.44900512695312 C-279.30499267578125,208.44900512695312 -291.99798583984375,195.7570037841797 -291.99798583984375,180.1540069580078 C-291.99798583984375,180.1540069580078 -291.99798583984375,-180.1540069580078 -291.99798583984375,-180.1540069580078 C-291.99798583984375,-195.75599670410156 -279.30499267578125,-208.44900512695312 -263.7030029296875,-208.44900512695312 C-263.7030029296875,-208.44900512695312 263.7030029296875,-208.44900512695312 263.7030029296875,-208.44900512695312 C279.3039855957031,-208.44900512695312 291.99798583984375,-195.75599670410156 291.99798583984375,-180.1540069580078 C291.99798583984375,-180.1540069580078 291.99798583984375,180.1540069580078 291.99798583984375,180.1540069580078 C291.99798583984375,195.7570037841797 279.3039855957031,208.44900512695312 263.7030029296875,208.44900512695312 C263.7030029296875,208.44900512695312 -263.7030029296875,208.44900512695312 -263.7030029296875,208.44900512695312z">
				</path>
			</g>
			<g opacity="1" transform="matrix(1,0,0,1,319.6239929199219,417.9169921875)">
				<path fill="rgb(74,74,74)" fill-opacity="1"
					d=" M-319.37298583984375,-53.98099899291992 C-319.37298583984375,-53.98099899291992 -319.37298583984375,-1.6890000104904175 -319.37298583984375,-1.6890000104904175 C-319.37298583984375,29.05699920654297 -294.4490051269531,53.98099899291992 -263.7030029296875,53.98099899291992 C-263.7030029296875,53.98099899291992 263.7019958496094,53.98099899291992 263.7019958496094,53.98099899291992 C294.447998046875,53.98099899291992 319.37298583984375,29.05699920654297 319.37298583984375,-1.6890000104904175 C319.37298583984375,-1.6890000104904175 319.37298583984375,-53.98099899291992 319.37298583984375,-53.98099899291992 C319.37298583984375,-53.98099899291992 -319.37298583984375,-53.98099899291992 -319.37298583984375,-53.98099899291992z">
				</path>
			</g>
			<g opacity="1" transform="matrix(1,0,0,1,651.2150268554688,33.12200164794922)">
				<path fill="rgb(104,104,104)" fill-opacity="1"
					d=" M22.035999298095703,8.77299976348877 C22.035999298095703,8.77299976348877 -13.998000144958496,8.77299976348877 -13.998000144958496,8.77299976348877 C-15.651000022888184,2.4130001068115234 -18.405000686645508,-3.507999897003174 -22.03700065612793,-8.77299976348877 C-22.03700065612793,-8.77299976348877 13.996999740600586,-8.77299976348877 13.996999740600586,-8.77299976348877 C17.628000259399414,-3.507999897003174 20.384000778198242,2.4130001068115234 22.035999298095703,8.77299976348877z">
				</path>
			</g>
			<g opacity="1" transform="matrix(1,0,0,1,657.0130004882812,78.21700286865234)">
				<path fill="rgb(104,104,104)" fill-opacity="1"
					d=" M-18.017000198364258,-8.77299976348877 C-18.017000198364258,-8.77299976348877 18.016000747680664,-8.77299976348877 18.016000747680664,-8.77299976348877 C18.016000747680664,-8.77299976348877 18.016000747680664,8.77299976348877 18.016000747680664,8.77299976348877 C18.016000747680664,8.77299976348877 -18.017000198364258,8.77299976348877 -18.017000198364258,8.77299976348877 C-18.017000198364258,8.77299976348877 -18.017000198364258,-8.77299976348877 -18.017000198364258,-8.77299976348877z">
				</path>
			</g>
			<g opacity="1" transform="matrix(1,0,0,1,657.0130004882812,123.3219985961914)">
				<path fill="rgb(104,104,104)" fill-opacity="1"
					d=" M-18.017000198364258,-8.77299976348877 C-18.017000198364258,-8.77299976348877 18.016000747680664,-8.77299976348877 18.016000747680664,-8.77299976348877 C18.016000747680664,-8.77299976348877 18.016000747680664,8.77299976348877 18.016000747680664,8.77299976348877 C18.016000747680664,8.77299976348877 -18.017000198364258,8.77299976348877 -18.017000198364258,8.77299976348877 C-18.017000198364258,8.77299976348877 -18.017000198364258,-8.77299976348877 -18.017000198364258,-8.77299976348877z">
				</path>
			</g>
			<g opacity="1" transform="matrix(1,0,0,1,657.0130004882812,168.42599487304688)">
				<path fill="rgb(104,104,104)" fill-opacity="1"
					d=" M-18.017000198364258,-8.77299976348877 C-18.017000198364258,-8.77299976348877 18.016000747680664,-8.77299976348877 18.016000747680664,-8.77299976348877 C18.016000747680664,-8.77299976348877 18.016000747680664,8.77299976348877 18.016000747680664,8.77299976348877 C18.016000747680664,8.77299976348877 -18.017000198364258,8.77299976348877 -18.017000198364258,8.77299976348877 C-18.017000198364258,8.77299976348877 -18.017000198364258,-8.77299976348877 -18.017000198364258,-8.77299976348877z">
				</path>
			</g>
			<g opacity="1" transform="matrix(1,0,0,1,657.0130004882812,213.52200317382812)">
				<path fill="rgb(104,104,104)" fill-opacity="1"
					d=" M-18.017000198364258,-8.77299976348877 C-18.017000198364258,-8.77299976348877 18.016000747680664,-8.77299976348877 18.016000747680664,-8.77299976348877 C18.016000747680664,-8.77299976348877 18.016000747680664,8.77299976348877 18.016000747680664,8.77299976348877 C18.016000747680664,8.77299976348877 -18.017000198364258,8.77299976348877 -18.017000198364258,8.77299976348877 C-18.017000198364258,8.77299976348877 -18.017000198364258,-8.77299976348877 -18.017000198364258,-8.77299976348877z">
				</path>
			</g>
			<g opacity="1" transform="matrix(1,0,0,1,657.0130004882812,258.6260070800781)">
				<path fill="rgb(104,104,104)" fill-opacity="1"
					d=" M-18.017000198364258,-8.77299976348877 C-18.017000198364258,-8.77299976348877 18.016000747680664,-8.77299976348877 18.016000747680664,-8.77299976348877 C18.016000747680664,-8.77299976348877 18.016000747680664,8.77299976348877 18.016000747680664,8.77299976348877 C18.016000747680664,8.77299976348877 -18.017000198364258,8.77299976348877 -18.017000198364258,8.77299976348877 C-18.017000198364258,8.77299976348877 -18.017000198364258,-8.77299976348877 -18.017000198364258,-8.77299976348877z">
				</path>
			</g>
			<g opacity="1" transform="matrix(1,0,0,1,657.0130004882812,303.7229919433594)">
				<path fill="rgb(104,104,104)" fill-opacity="1"
					d=" M-18.017000198364258,-8.77299976348877 C-18.017000198364258,-8.77299976348877 18.016000747680664,-8.77299976348877 18.016000747680664,-8.77299976348877 C18.016000747680664,-8.77299976348877 18.016000747680664,8.77299976348877 18.016000747680664,8.77299976348877 C18.016000747680664,8.77299976348877 -18.017000198364258,8.77299976348877 -18.017000198364258,8.77299976348877 C-18.017000198364258,8.77299976348877 -18.017000198364258,-8.77299976348877 -18.017000198364258,-8.77299976348877z">
				</path>
			</g>
			<g opacity="1" transform="matrix(1,0,0,1,657.0130004882812,348.82598876953125)">
				<path fill="rgb(104,104,104)" fill-opacity="1"
					d=" M-18.017000198364258,-8.77299976348877 C-18.017000198364258,-8.77299976348877 18.016000747680664,-8.77299976348877 18.016000747680664,-8.77299976348877 C18.016000747680664,-8.77299976348877 18.016000747680664,8.77299976348877 18.016000747680664,8.77299976348877 C18.016000747680664,8.77299976348877 -18.017000198364258,8.77299976348877 -18.017000198364258,8.77299976348877 C-18.017000198364258,8.77299976348877 -18.017000198364258,-8.77299976348877 -18.017000198364258,-8.77299976348877z">
				</path>
			</g>
			<g opacity="1" transform="matrix(1,0,0,1,657.0130004882812,393.927001953125)">
				<path fill="rgb(104,104,104)" fill-opacity="1"
					d=" M-18.017000198364258,-8.779000282287598 C-18.017000198364258,-8.779000282287598 18.016000747680664,-8.779000282287598 18.016000747680664,-8.779000282287598 C18.016000747680664,-8.779000282287598 18.016000747680664,8.779000282287598 18.016000747680664,8.779000282287598 C18.016000747680664,8.779000282287598 -18.017000198364258,8.779000282287598 -18.017000198364258,8.779000282287598 C-18.017000198364258,8.779000282287598 -18.017000198364258,-8.779000282287598 -18.017000198364258,-8.779000282287598z">
				</path>
			</g>
			<g opacity="1" transform="matrix(1,0,0,1,651.2150268554688,439.0260009765625)">
				<path fill="rgb(104,104,104)" fill-opacity="1"
					d=" M22.035999298095703,-8.77299976348877 C20.384000778198242,-2.4140000343322754 17.628999710083008,3.509000062942505 13.996999740600586,8.77400016784668 C13.996999740600586,8.77400016784668 -22.03700065612793,8.77400016784668 -22.03700065612793,8.77400016784668 C-18.405000686645508,3.509000062942505 -15.651000022888184,-2.4140000343322754 -13.998000144958496,-8.77299976348877 C-13.998000144958496,-8.77299976348877 22.035999298095703,-8.77299976348877 22.035999298095703,-8.77299976348877z">
				</path>
			</g>
			<g opacity="1" transform="matrix(1,0,0,1,262.93798828125,417.9169921875)">
				<path fill="rgb(248,248,253)" fill-opacity="1"
					d=" M16.948999404907227,0 C16.948999404907227,9.359000205993652 9.36299991607666,16.952999114990234 0.004000000189989805,16.952999114990234 C-9.36299991607666,16.952999114990234 -16.948999404907227,9.359000205993652 -16.948999404907227,0 C-16.948999404907227,-9.359999656677246 -9.36299991607666,-16.952999114990234 0.004000000189989805,-16.952999114990234 C9.36299991607666,-16.952999114990234 16.948999404907227,-9.359999656677246 16.948999404907227,0z">
				</path>
			</g>
			<g opacity="1" transform="matrix(1,0,0,1,319.6239929199219,417.9169921875)">
				<path fill="rgb(248,248,253)" fill-opacity="1"
					d=" M16.948999404907227,0 C16.948999404907227,9.359000205993652 9.36299991607666,16.952999114990234 0.004000000189989805,16.952999114990234 C-9.36299991607666,16.952999114990234 -16.948999404907227,9.359000205993652 -16.948999404907227,0 C-16.948999404907227,-9.359999656677246 -9.36299991607666,-16.952999114990234 0.004000000189989805,-16.952999114990234 C9.36299991607666,-16.952999114990234 16.948999404907227,-9.359999656677246 16.948999404907227,0z">
				</path>
			</g>
			<g opacity="1" transform="matrix(1,0,0,1,376.30999755859375,417.9169921875)">
				<path fill="rgb(248,248,253)" fill-opacity="1"
					d=" M16.948999404907227,0 C16.948999404907227,9.359000205993652 9.36299991607666,16.952999114990234 0.004000000189989805,16.952999114990234 C-9.36299991607666,16.952999114990234 -16.948999404907227,9.359000205993652 -16.948999404907227,0 C-16.948999404907227,-9.359999656677246 -9.36299991607666,-16.952999114990234 0.004000000189989805,-16.952999114990234 C9.36400032043457,-16.952999114990234 16.948999404907227,-9.359999656677246 16.948999404907227,0z">
				</path>
			</g>
			<g opacity="1" transform="matrix(1,0,0,1,65.9020004272461,77.99800109863281)">
				<path fill="rgb(255,255,255)" fill-opacity="1"
					d=" M-0.0010000000474974513,23.517000198364258 C-0.0010000000474974513,10.527999877929688 -10.527999877929688,0 -23.517000198364258,0 C-10.628999710083008,0 -0.0010000000474974513,-10.4350004196167 0,-23.517000198364258 C0,-10.628999710083008 10.435999870300293,0 23.517000198364258,0 C10.628000259399414,0 -0.0010000000474974513,10.435999870300293 -0.0010000000474974513,23.517000198364258z">
				</path>
			</g>
		</g>
		<g class='animate__swing'>
			<g transform="matrix(1,0,0,1,276,182)" opacity="1" >
				<g opacity="1" transform="matrix(1,0,0,1,263.4419860839844,212.39599609375)">
					<path fill="rgb(245,81,99)" fill-opacity="1"
						d=" M202.95799255371094,212.14599609375 C202.95799255371094,212.14599609375 -202.95899963378906,212.13800048828125 -202.95899963378906,212.13800048828125 C-240.4219970703125,212.13699340820312 -263.1919860839844,170.8509979248047 -243.2030029296875,139.16700744628906 C-243.2030029296875,139.16700744628906 -40.242000579833984,-182.552001953125 -40.242000579833984,-182.552001953125 C-21.57200050354004,-212.14599609375 21.57900047302246,-212.14599609375 40.24700164794922,-182.55099487304688 C40.24700164794922,-182.55099487304688 243.2030029296875,139.1750030517578 243.2030029296875,139.1750030517578 C263.1929931640625,170.86199951171875 240.4219970703125,212.14700317382812 202.95799255371094,212.14599609375z">
					</path>
				</g>
				<g opacity="1" transform="matrix(1,0,0,1,366.19500732421875,212.39700317382812)">
					<path fill="rgb(199,53,67)" fill-opacity="1"
						d=" M8.140999794006348,112.33300018310547 C8.140999794006348,112.33300018310547 -160.44200134277344,-154.90199279785156 -160.44200134277344,-154.90199279785156 C-160.44200134277344,-154.90199279785156 -142.9949951171875,-182.55499267578125 -142.9949951171875,-182.55499267578125 C-124.32499694824219,-212.14700317382812 -81.17400360107422,-212.14599609375 -62.505001068115234,-182.55299377441406 C-62.505001068115234,-182.55299377441406 140.4530029296875,139.17300415039062 140.4530029296875,139.17300415039062 C160.44200134277344,170.85899353027344 137.6699981689453,212.14700317382812 100.20600128173828,212.14500427246094 C100.20600128173828,212.14500427246094 -46.01499938964844,212.14199829101562 -46.01499938964844,212.14199829101562 C4.697000026702881,211.48899841308594 35.32600021362305,155.41799926757812 8.140999794006348,112.33300018310547z">
					</path>
				</g>
			</g>
			<g class="animate__heartBeat animate__animated">
				<g transform="matrix(1,0,0,1,509,292)">
					<g opacity="1" transform="matrix(1,0,0,1,30.423999786376953,90.59700012207031)">
						<path fill="rgb(248,248,253)" fill-opacity="1"
							d=" M-30.173999786376953,-60.178001403808594 C-30.173999786376953,-76.84300231933594 -16.65999984741211,-90.34700012207031 0.004999999888241291,-90.34700012207031 C16.65999984741211,-90.34700012207031 30.173999786376953,-76.84300231933594 30.173999786376953,-60.178001403808594 C30.173999786376953,-43.51300048828125 16.65999984741211,90.34700012207031 0.004999999888241291,90.34700012207031 C-16.659000396728516,90.34700012207031 -30.173999786376953,-43.51300048828125 -30.173999786376953,-60.178001403808594z">
						</path>
					</g>
					<g transform="matrix(1,0,0,1,30.423999786376953,228.14999389648438)">
						<path fill="rgb(248,248,253)" fill-opacity="1"
							d=" M25.349000930786133,0 C25.349000930786133,14 14.005000114440918,25.354000091552734 0.004999999888241291,25.354000091552734 C-14.005000114440918,25.354000091552734 -25.349000930786133,13.99899959564209 -25.349000930786133,0 C-25.349000930786133,-14.010000228881836 -14.005000114440918,-25.354000091552734 0.004999999888241291,-25.354000091552734 C14.005000114440918,-25.354000091552734 25.349000930786133,-14.01099967956543 25.349000930786133,0z">
							<animateTransform type="scale" attributeName="transform" calcMode="spline" dur="2"
								values="1 1;.5 .5;1 1" keyTimes="0;1" keySplines="0.4 0 0.5 1; 0.5 0 0.5 1"
								repeatCount="indefinite"></animateTransform>
						</path>
					</g>
				</g>
			</g>
		</g>
	</g>
	<style>
		:root {
		  --animate-duration: 1.5s;
		  --animate-delay: 1s;
		  --animate-repeat: 2;
		}
		.animate__swing {
			animation: swing 1s ease-out infinite;
			transform-origin: center;
		}
		@keyframes swing {
			20% {
				transform: rotate3d(1, 1, 1, 15deg);
			  }
			  40% {
				transform: rotate3d(1, 1, 1, -10deg);
			  }

			  60% {
				transform: rotate3d(1, 1, 1, 5deg);
			  }

			  80% {
				transform: rotate3d(1, 1, 1, -5deg);
			  }

			  to {
				transform: rotate3d(1, 1, 1, 0deg);
			  }
		}
		@keyframes heartBeat {
		  0% {
		      -webkit-transform: scale(1);
		      transform: scale(1);
		    }

		    14% {
		      -webkit-transform: scale(1.3);
		      transform: scale(1.3);
		    }

		    28% {
		      -webkit-transform: scale(1);
		      transform: scale(1);
		    }

		    42% {
		      -webkit-transform: scale(1.3);
		      transform: scale(1.3);
		    }

		    70% {
		      -webkit-transform: scale(1);
		      transform: scale(1);
		    }
		}
		.animate__heartBeat {
		  animation-delay: 500ms;
		  animation-iteration-count: infinite;
		  transform-origin: center;
		  -webkit-animation-name: heartBeat;
		    animation-name: heartBeat;
		    -webkit-animation-duration: calc(1s * 1.3);
		    animation-duration: calc(1s * 1.3);
		    -webkit-animation-duration: calc(var(--animate-duration) * 1.3);
		    animation-duration: calc(var(--animate-duration) * 1.3);
		    -webkit-animation-timing-function: ease-in-out;
		    animation-timing-function: ease-in-out;
		}

		.animate__animated {
		  -webkit-animation-duration: 2s;
		  animation-duration: 2s;
		  -webkit-animation-duration: var(--animate-duration);
		  animation-duration: var(--animate-duration);
		  -webkit-animation-fill-mode: both;
		  animation-fill-mode: both;
		}
	</style>
</svg>
