<svg t="1666599133226" class="icon" viewBox="0 0 1024 1024" version="1.1" xmlns="http://www.w3.org/2000/svg" p-id="2476" ><path d="M936.470481 431.851589c-9.006118-7.248078-22.181185-5.816472-29.404704 3.25616l-35.853579 44.924165c-1.173732-17.362436-3.472078-34.854832-7.119141-52.390207-44.728714-216.201064-255.093862-354.923522-469.839785-309.911352C179.482791 162.782434 41.648562 374.513696 86.3783 590.670757c44.729737 216.202087 255.091816 354.925568 469.861274 309.87042 78.063937-16.363689 145.169287-55.384401 197.687408-108.122533 0.194428-0.173962 0.39295-0.345877 0.587378-0.563842 0.934279-0.955768 1.257643-2.039449 2.191922-3.037173 1.541099-2.607384 2.64627-5.686513 2.64627-8.940626 0-9.54847-7.723915-17.319457-17.231453-17.319457-5.120624 0-9.592472 2.343371-12.760628 5.903453l-0.12996-0.085958c-47.680952 47.789423-108.860337 83.033112-179.697685 97.879238-194.476273 40.799218-384.982118-84.857667-425.479461-280.615119-40.518832-195.758476 84.314291-387.522987 278.791587-428.324252 194.476273-40.757263 384.982118 84.901669 425.480484 280.660144 3.124154 15.061021 5.253654 30.036084 6.509251 44.968168l-43.447535-35.114752c-9.029654-7.248078-22.181185-5.816472-29.404704 3.25616-7.251148 9.071609-5.794983 22.309098 3.212158 29.601178 0.041956 0.044002 0.041956 0.044002 0.085958 0.044002l80.06143 64.717977c0.022513 0 0.064468 0.041956 0.084934 0.041956 4.560876 3.689019 10.202363 5.121648 15.581883 4.470825 5.424546-0.563842 10.615779-3.123131 14.281261-7.724938 0.022513-0.041956 0.044002-0.086981 0.044002-0.086981l64.282049-80.646761c0.023536 0 0.023536 0 0.062422-0.044002C946.910251 452.382181 945.476599 439.144692 936.470481 431.851589z" p-id="2477"></path><path d="M463.635479 730.611973c0 9.981329 8.138354 18.10024 18.144242 18.10024 10.004865 0 18.123776-8.116865 18.123776-18.10024l0.107447 0L500.010945 622.923322l109.033275 0 0-0.172939c10.006911 0 18.122753-8.160867 18.122753-18.145266 0-10.025331-8.116865-18.141172-18.122753-18.141172l-109.033275 0 0-56.035224 109.054765 0 0-0.002047 0-0.173962c9.983375 0 18.10024-8.116865 18.10024-18.143219 0-10.026354-8.116865-18.144242-18.10024-18.144242L500.008898 493.965252l0-33.378202 108.101043-106.037035-0.10847-0.130983c7.487531-6.641257 8.159844-18.10024 1.51961-25.610284-6.66377-7.509021-18.122753-8.159844-25.610284-1.518586l-101.676727 100.222609L375.285269 322.472436c-7.510044-6.642281-18.969027-5.946432-25.610284 1.561565-6.640234 7.466042-5.966898 18.925025 1.51961 25.566282l-0.10847 0.130983 112.463398 109.989043 0 34.244942L354.493733 493.965252l0 0.088004c-9.983375 0-18.10024 8.115841-18.10024 18.144242 0 10.026354 8.116865 18.144242 18.10024 18.144242l0 0.086981 109.055788 0 0 56.035224L354.493733 586.463945l0 0.084934c-9.983375 0-18.122753 8.160867-18.122753 18.145266 0 10.025331 8.138354 18.141172 18.122753 18.141172l0 0.088004 109.055788 0 0 107.687628L463.635479 730.61095z" p-id="2478"></path></svg>